<svg xmlns="http://www.w3.org/2000/svg" viewBox="0 0 560 420" role="img" aria-label="Derecho constitucional, administrativo y regulatorio">
  <defs>
    <linearGradient id="a-gold" x1="0" y1="0" x2="1" y2="1">
      <stop offset="0" stop-color="#EBD9A7"/>
      <stop offset="1" stop-color="#D9BE7E"/>
    </linearGradient>
  </defs>

  <circle cx="280" cy="200" r="168" fill="url(#a-gold)" opacity="0.16"/>

  <!-- Edificio de gobierno -->
  <g>
    <polygon points="280,74 396,132 164,132" fill="#1E3A5F"/>
    <polygon points="280,90 372,132 188,132" fill="#2C4A70"/>
    <rect x="168" y="132" width="224" height="14" fill="#14283F"/>
    <g fill="#F4F1EC">
      <rect x="184" y="150" width="20" height="150" rx="2"/>
      <rect x="224" y="150" width="20" height="150" rx="2"/>
      <rect x="264" y="150" width="20" height="150" rx="2"/>
      <rect x="304" y="150" width="20" height="150" rx="2"/>
      <rect x="344" y="150" width="20" height="150" rx="2"/>
    </g>
    <g fill="#D8D2CB">
      <rect x="184" y="150" width="6" height="150"/>
      <rect x="224" y="150" width="6" height="150"/>
      <rect x="264" y="150" width="6" height="150"/>
      <rect x="304" y="150" width="6" height="150"/>
      <rect x="344" y="150" width="6" height="150"/>
    </g>
    <rect x="164" y="300" width="232" height="16" fill="#1E3A5F"/>
    <rect x="150" y="316" width="260" height="16" rx="3" fill="#14283F"/>
  </g>

  <!-- Mazo de juez -->
  <g transform="translate(392,300) rotate(-32)">
    <rect x="-16" y="-58" width="32" height="96" rx="8" fill="#2C4A70"/>
    <rect x="-30" y="-74" width="60" height="30" rx="8" fill="#1E3A5F"/>
    <rect x="-30" y="-74" width="60" height="30" rx="8" fill="none" stroke="#E4CE9A" stroke-width="3"/>
    <rect x="-6" y="34" width="12" height="52" rx="6" fill="#2C4A70"/>
  </g>
  <rect x="352" y="356" width="96" height="16" rx="6" fill="#1E3A5F"/>

  <rect x="20" y="392" width="520" height="6" rx="3" fill="#14283F"/>
</svg>
