<svg xmlns="http://www.w3.org/2000/svg" viewBox="0 0 640 440" role="img" aria-label="Actualidad legal y publicaciones">
  <defs>
    <linearGradient id="ac-gold" x1="0" y1="0" x2="1" y2="1">
      <stop offset="0" stop-color="#EBD9A7"/>
      <stop offset="1" stop-color="#D9BE7E"/>
    </linearGradient>
  </defs>

  <circle cx="320" cy="220" r="180" fill="url(#ac-gold)" opacity="0.16"/>

  <!-- Periódico -->
  <g transform="rotate(-6 300 240)">
    <rect x="150" y="110" width="300" height="240" rx="12" fill="#F4F1EC" stroke="#D8D2CB" stroke-width="2"/>
    <rect x="172" y="132" width="256" height="34" rx="4" fill="#1E3A5F"/>
    <rect x="172" y="182" width="120" height="90" rx="4" fill="#2C4A70"/>
    <g fill="#C9C3BC">
      <rect x="304" y="182" width="124" height="9" rx="4"/>
      <rect x="304" y="202" width="124" height="9" rx="4"/>
      <rect x="304" y="222" width="124" height="9" rx="4"/>
      <rect x="304" y="242" width="96" height="9" rx="4"/>
      <rect x="172" y="290" width="256" height="9" rx="4"/>
      <rect x="172" y="310" width="256" height="9" rx="4"/>
      <rect x="172" y="330" width="180" height="9" rx="4"/>
    </g>
  </g>

  <!-- Micrófono (entrevistas / conferencias) -->
  <g transform="translate(468,250)">
    <circle cx="0" cy="0" r="70" fill="#1E3A5F"/>
    <rect x="-14" y="-38" width="28" height="52" rx="14" fill="#F4F1EC"/>
    <path d="M-24 -8 a24 24 0 0 0 48 0" fill="none" stroke="#E4CE9A" stroke-width="5" stroke-linecap="round"/>
    <line x1="0" y1="16" x2="0" y2="34" stroke="#E4CE9A" stroke-width="5" stroke-linecap="round"/>
    <line x1="-14" y1="34" x2="14" y2="34" stroke="#E4CE9A" stroke-width="5" stroke-linecap="round"/>
  </g>

  <rect x="30" y="404" width="580" height="6" rx="3" fill="#14283F"/>
</svg>
